<svg width="94" height="20" viewBox="0 0 94 20" fill="none" xmlns="http://www.w3.org/2000/svg">
<path d="M0 19.7424L6.92079 2.40471H10.2028L17.1236 19.7424H14.1375L12.4965 15.5328H4.57026L2.92925 19.7424H0ZM7.68184 7.58671L5.51761 13.1281H11.5584L9.41798 7.58671C9.13259 6.87323 8.83927 6.06461 8.53802 5.16086C8.25527 6.05052 7.9712 6.86001 7.6858 7.58935L7.68184 7.58671Z" fill="black"/>
<path d="M18.9826 19.7424V6.2813H21.5274L21.6688 8.25527C22.7469 6.78074 24.1897 6.04347 25.9972 6.04347C27.3608 6.04347 28.4706 6.43192 29.3268 7.20883C30.183 7.98573 30.6111 9.15902 30.6111 10.7287V19.7424H27.8536V11.0616C27.8536 10.2689 27.6237 9.6426 27.1639 9.1828C26.7041 8.723 26.0303 8.4931 25.1424 8.4931C24.2725 8.47479 23.4277 8.78472 22.776 9.36117C22.118 9.93988 21.7811 10.7366 21.7652 11.7513V19.7424H18.9826Z" fill="black"/>
<path d="M37.1051 19.9088C35.1866 19.9088 34.2274 19.0844 34.2274 17.4354V8.3504L32.4437 8.37418V6.2813L34.2274 6.30508V2.59497L36.9399 2.35714V6.30508L39.1266 6.2813V8.37418L36.9399 8.3504V16.3652C36.9399 16.8567 37.0113 17.1857 37.154 17.3522C37.2967 17.5187 37.5887 17.6019 38.034 17.6019C38.4019 17.6125 38.7696 17.5725 39.1266 17.483V19.671C38.762 19.7503 38.4096 19.8097 38.0696 19.8494C37.7495 19.8878 37.4275 19.9076 37.1051 19.9088Z" fill="black"/>
<path d="M47.1177 19.9802C45.8017 19.9802 44.6566 19.6908 43.6824 19.1121C42.7098 18.5362 41.9219 17.6946 41.4111 16.6863C40.872 15.6478 40.6025 14.4309 40.6025 13.0356C40.6025 11.6263 40.872 10.3975 41.4111 9.34928C41.9192 8.33603 42.7075 7.48995 43.6824 6.91154C44.6575 6.33283 45.8026 6.04347 47.1177 6.04347C48.4328 6.04347 49.5743 6.33283 50.5424 6.91154C51.5119 7.49281 52.2957 8.33844 52.8017 9.34928C53.3408 10.3957 53.6104 11.6166 53.6104 13.0118C53.6104 14.4212 53.3408 15.646 52.8017 16.6863C52.2931 17.6922 51.5097 18.5333 50.5424 19.1121C49.5752 19.6908 48.4336 19.9802 47.1177 19.9802ZM47.1177 17.6495C48.2909 17.6495 49.2026 17.2412 49.8527 16.4247C50.5027 15.6081 50.8278 14.463 50.8278 12.9894C50.8278 11.5148 50.5027 10.3772 49.8527 9.57654C49.2026 8.77585 48.2909 8.37551 47.1177 8.37551C45.9444 8.37551 45.0287 8.78774 44.3707 9.61221C43.7128 10.4367 43.3838 11.5703 43.3838 13.0131C43.3838 14.4877 43.7088 15.6293 44.3589 16.4379C45.0089 17.2465 45.9285 17.6503 47.1177 17.6495Z" fill="black"/>
<path d="M57.745 20C57.6351 20.0063 57.5253 19.9854 57.4253 19.9394C57.3254 19.8933 57.2382 19.8234 57.1716 19.7358C57.0265 19.5212 56.9559 19.265 56.9707 19.0064C56.9707 18.6021 57.1385 17.8534 57.4741 16.7603L61.4379 2.96756C61.6537 2.15014 61.7612 1.64674 61.7603 1.45736C61.7603 1.15611 61.6467 0.952635 61.4194 0.844291C61.1922 0.735947 60.776 0.683096 60.1735 0.683096L60.225 0.502079C61.0042 0.468081 61.7801 0.382009 62.5478 0.244435C63.2084 0.1242 63.6365 0.0422805 63.8255 0C63.98 0 64.058 0.0594591 64.058 0.179694C63.995 0.479102 63.9066 0.7726 63.7938 1.05701L63.2137 2.96756L59.1654 17.0192C59.0496 17.3349 58.9798 17.6655 58.9579 18.0009C58.9579 18.1899 59.0187 18.285 59.1389 18.285C59.2935 18.285 59.5459 18.1079 59.8934 17.7565C60.2409 17.405 60.8288 16.7286 61.6546 15.731L61.8105 15.8631C60.787 17.4028 59.9762 18.4779 59.3781 19.0883C58.78 19.6988 58.2356 20.0026 57.745 20Z" fill="black"/>
<path d="M63.8876 20C62.864 20 62.3522 19.2002 62.3522 17.6006C62.3522 16.2326 62.7394 14.6757 63.5136 12.9299C64.2248 11.322 65.2411 9.86723 66.5063 8.64636C67.6946 7.48453 68.8991 6.90361 70.12 6.90361C70.9189 6.90361 71.4915 7.21763 71.8376 7.84567V7.82057C71.9601 7.44501 72.206 7.12187 72.5352 6.90361C72.8876 6.65433 73.21 6.52969 73.5024 6.52969C73.6491 6.52969 73.7217 6.59047 73.7217 6.71071C73.7217 6.77941 73.6143 7.19649 73.3994 7.96195L72.9739 9.43251L70.8017 17.0192C70.713 17.3419 70.6441 17.6698 70.5956 18.0009C70.5956 18.1899 70.6643 18.285 70.8017 18.285C70.9735 18.285 71.2466 18.1 71.6209 17.7301C71.9953 17.3601 72.5784 16.6933 73.3703 15.7297L73.5249 15.8618C72.5022 17.3901 71.6874 18.462 71.0805 19.0778C70.4736 19.6935 69.9253 20.0018 69.4356 20.0026C68.885 20.0026 68.6098 19.6802 68.6098 19.0355C68.6098 18.6135 68.7776 17.8565 69.1132 16.7642L69.861 14.3001H69.7712C68.8674 15.9508 67.8738 17.2962 66.7904 18.3365C65.655 19.4455 64.6874 20 63.8876 20ZM64.1716 16.788C64.1716 17.8635 64.4799 18.4008 65.0965 18.3999C65.625 18.3999 66.2742 18.0238 67.0441 17.2716C67.9074 16.404 68.6576 15.4309 69.277 14.3754C69.9352 13.3032 70.4471 12.1479 70.7991 10.9401C71.0827 10.002 71.2246 9.2973 71.2246 8.82605C71.2246 7.80339 70.855 7.29162 70.116 7.29074C69.2466 7.29074 68.3477 7.84567 67.4193 8.95554C66.4388 10.1387 65.6545 11.4717 65.0965 12.9035C64.4799 14.4687 64.1716 15.7636 64.1716 16.788Z" fill="black"/>
<path d="M77.1517 20C75.405 20 74.5317 19.2002 74.5317 17.6006C74.5317 16.9981 74.6911 16.1252 75.01 14.9818L78.4651 2.96888C78.68 2.15146 78.7875 1.64806 78.7875 1.45868C78.7875 1.15743 78.6738 0.95395 78.4453 0.845607C78.2167 0.737263 77.8031 0.684412 77.2006 0.684412L77.2522 0.503399C78.0313 0.46926 78.8073 0.383189 79.575 0.245755C80.2118 0.134769 80.6333 0.0532897 80.8394 0.00131989C81.0019 0.00131989 81.0838 0.0607749 81.0838 0.18101C81.0116 0.478733 80.9212 0.771729 80.813 1.05833L80.2356 2.96888L77.4609 12.4516H77.564C78.3197 10.9973 79.2848 9.66174 80.4285 8.48781C81.4617 7.4308 82.3606 6.90229 83.1252 6.90229C84.3214 6.90229 84.9195 7.68536 84.9195 9.2515C84.9195 10.5842 84.5323 12.1257 83.7581 13.8759C83.0449 15.4917 82.0387 16.9615 80.7905 18.211C79.5688 19.4045 78.3559 20.0009 77.1517 20ZM76.0419 18.207C76.0419 19.1451 76.4118 19.6137 77.1517 19.6129C78.0326 19.6129 78.9399 19.0403 79.8736 17.8952C80.8592 16.6679 81.6433 15.2915 82.1963 13.8178C82.8129 12.2252 83.1212 10.922 83.1212 9.90817C83.1212 8.89432 82.8288 8.38255 82.2439 8.37286C81.7365 8.37286 81.0935 8.75338 80.3149 9.51443C78.5373 11.3285 77.2135 13.5368 76.4515 15.9596C76.1784 16.8466 76.0419 17.5957 76.0419 18.207Z" fill="black"/>
<path d="M87.4999 20C86.5785 20 85.8325 19.7679 85.2617 19.3037C84.6909 18.8395 84.4046 18.2801 84.4029 17.6257C84.3987 17.5088 84.4177 17.3923 84.4588 17.2827C84.4998 17.1732 84.5621 17.0729 84.642 16.9875C84.7163 16.9064 84.8071 16.842 84.9083 16.7987C85.0094 16.7555 85.1186 16.7342 85.2286 16.7365C85.5907 16.7365 85.8351 16.9466 85.9646 17.368C86.1883 18.1608 86.4226 18.7285 86.6675 19.0711C86.9124 19.4138 87.2757 19.586 87.7575 19.5878C88.316 19.5878 88.7507 19.4028 89.0616 19.0328C89.3726 18.6629 89.5272 18.1595 89.5254 17.5226C89.5254 16.9386 89.2977 16.1388 88.8423 15.1232L87.706 12.6802C87.2543 11.8431 87.0109 10.9095 86.9965 9.95838C86.9935 9.53654 87.0754 9.1184 87.2371 8.72878C87.3988 8.33916 87.6371 7.986 87.9379 7.69024C88.2388 7.39448 88.5959 7.16216 88.9882 7.00706C89.3805 6.85196 89.8 6.77724 90.2217 6.78734C91.0735 6.78734 91.7575 7.01988 92.2736 7.48497C92.5168 7.68848 92.7122 7.943 92.846 8.23048C92.9798 8.51796 93.0487 8.83135 93.0479 9.14844C93.0563 9.38253 92.9755 9.61107 92.822 9.78793C92.7506 9.86929 92.6623 9.93395 92.5632 9.97733C92.4641 10.0207 92.3567 10.0418 92.2485 10.039C91.9032 10.039 91.6667 9.83682 91.539 9.43252C91.5126 9.33871 91.469 9.18412 91.4069 8.96875L91.2906 8.55519C91.2734 8.49574 91.243 8.39664 91.2008 8.25923C91.1726 8.15844 91.1336 8.06098 91.0845 7.96855L90.9524 7.76244C90.9007 7.68059 90.84 7.6048 90.7714 7.5365C90.6744 7.42862 90.5545 7.34371 90.4206 7.28794C90.2867 7.23217 90.142 7.20695 89.9971 7.21411C89.7778 7.20299 89.5592 7.24669 89.361 7.34127C89.1629 7.43586 88.9914 7.57834 88.8621 7.75583C88.5979 8.1161 88.4657 8.61509 88.4657 9.25282C88.4657 9.80247 88.6983 10.5679 89.1634 11.5492L90.3248 13.9882C90.7532 14.8687 90.9789 15.834 90.9854 16.8131C90.9898 17.2338 90.9065 17.6507 90.7409 18.0374C90.5753 18.4242 90.331 18.7722 90.0235 19.0593C89.3823 19.6864 88.5411 20 87.4999 20Z" fill="black"/>
</svg>
